<svg xmlns="http://www.w3.org/2000/svg" xmlns:xlink="http://www.w3.org/1999/xlink" width="500" zoomAndPan="magnify" viewBox="0 0 375 374.999991" height="500" preserveAspectRatio="xMidYMid meet" version="1.0"><defs><clipPath id="id1"><path d="M 24 148.121094 L 131 148.121094 L 131 226.871094 L 24 226.871094 Z M 24 148.121094 " clip-rule="nonzero"/></clipPath></defs><rect x="-37.5" width="450" fill="#ffffff" y="-37.499999" height="449.999989" fill-opacity="1"/><rect x="-37.5" width="450" fill="#ffffff" y="-37.499999" height="449.999989" fill-opacity="1"/><rect x="-37.5" width="450" fill="#ffffff" y="-37.499999" height="449.999989" fill-opacity="1"/><rect x="-37.5" width="450" fill="#ffffff" y="-37.499999" height="449.999989" fill-opacity="1"/><g clip-path="url(#id1)"><path fill="#29b2fe" d="M 86.367188 148.21875 L 93.582031 158.347656 L 130.09375 148.21875 M 48.4375 227.054688 L 68.183594 207.734375 L 56.296875 194.972656 M 83.375 148.214844 L 72.820312 157.738281 L 90.574219 158.402344 M 42.367188 148.21875 L 46.160156 155.992188 L 67.054688 157.292969 M 53.527344 188.527344 L 68.964844 159.714844 L 24.136719 157.292969 M 55.328125 190.351562 L 69.910156 206.023438 L 85.992188 190.246094 L 90.984375 160.863281 L 71.382812 159.859375 " fill-opacity="1" fill-rule="nonzero"/></g><path fill="#161f2b" d="M 117.222656 185.167969 L 113.222656 185.167969 L 109.71875 207.28125 C 109.625 207.859375 109.078125 208.332031 108.496094 208.332031 L 100.5 208.332031 C 99.921875 208.332031 99.527344 207.859375 99.613281 207.28125 L 104.523438 176.269531 C 105.765625 168.429688 109.722656 166.6875 115.140625 166.6875 C 116.824219 166.6875 118.589844 166.847656 119.96875 167.113281 C 120.578125 167.21875 120.996094 167.585938 120.902344 168.164062 L 120.113281 173.167969 C 120.019531 173.746094 119.480469 174.167969 118.847656 174.167969 L 116.640625 174.167969 C 115.324219 174.167969 114.875 174.726562 114.625 176.273438 L 114.402344 177.667969 L 118.402344 177.667969 C 118.980469 177.667969 119.375 178.140625 119.285156 178.722656 L 118.433594 184.09375 C 118.339844 184.671875 117.796875 185.144531 117.210938 185.144531 Z M 137.179688 185.535156 L 136.445312 185.535156 C 134.179688 185.535156 131.976562 185.851562 130.203125 186.746094 L 126.96875 207.171875 C 126.878906 207.726562 126.367188 208.328125 125.730469 208.328125 L 117.84375 208.328125 C 117.210938 208.328125 116.777344 207.75 116.867188 207.171875 L 121.367188 178.746094 C 121.460938 178.191406 121.851562 177.6875 122.59375 177.6875 L 130.167969 177.6875 C 130.90625 177.6875 131.175781 177.953125 131.050781 178.746094 L 130.851562 180.007812 C 133.609375 177.503906 135.546875 177.269531 138.363281 177.269531 C 139.25 177.269531 139.378906 177.484375 139.246094 178.328125 L 138.226562 184.75 C 138.128906 185.382812 137.894531 185.542969 137.210938 185.542969 Z M 163.613281 195.855469 L 147.253906 195.855469 L 147.238281 195.960938 C 146.792969 198.75 147.683594 200.488281 151.523438 200.488281 L 161.582031 200.0625 C 162.433594 200.007812 162.695312 200.167969 162.597656 200.953125 L 161.84375 205.695312 C 161.710938 206.535156 161.441406 206.902344 160.558594 207.167969 C 157.015625 208.277344 153.328125 208.800781 148.886719 208.800781 C 141.78125 208.800781 135.800781 205.0625 137.390625 195.007812 L 137.941406 191.53125 C 139.40625 182.261719 145.574219 177.210938 154.199219 177.210938 C 163.378906 177.210938 166.714844 183.054688 165.402344 191.527344 L 164.902344 194.6875 C 164.789062 195.371094 164.242188 195.84375 163.609375 195.84375 Z M 155.949219 190.140625 C 156.449219 186.984375 155.488281 185.085938 152.855469 185.085938 C 150.332031 185.085938 148.664062 186.984375 148.164062 190.140625 L 148.136719 190.300781 L 155.925781 190.300781 L 155.953125 190.140625 Z M 192.738281 195.878906 L 176.375 195.878906 L 176.363281 195.984375 C 175.917969 198.777344 176.808594 200.511719 180.644531 200.511719 L 190.707031 200.089844 C 191.558594 200.035156 191.820312 200.191406 191.722656 200.980469 L 190.972656 205.71875 C 190.839844 206.5625 190.570312 206.929688 189.6875 207.195312 C 186.144531 208.300781 182.457031 208.828125 178.011719 208.828125 C 170.910156 208.828125 164.925781 205.085938 166.515625 195.03125 L 167.066406 191.554688 C 168.535156 182.289062 174.703125 177.234375 183.328125 177.234375 C 192.507812 177.234375 195.84375 183.078125 194.53125 191.550781 L 194.03125 194.714844 C 193.917969 195.394531 193.371094 195.867188 192.742188 195.867188 Z M 185.039062 190.140625 C 185.539062 186.984375 184.578125 185.085938 181.945312 185.085938 C 179.421875 185.085938 177.753906 186.984375 177.253906 190.140625 L 177.226562 190.300781 L 185.015625 190.300781 Z M 203.386719 208.355469 L 195.46875 208.355469 C 195.324219 208.351562 195.1875 208.316406 195.0625 208.25 C 194.933594 208.1875 194.820312 208.101562 194.730469 207.992188 C 194.636719 207.882812 194.570312 207.757812 194.53125 207.621094 C 194.488281 207.480469 194.476562 207.339844 194.496094 207.199219 L 200.613281 168.714844 C 200.707031 168.136719 201.359375 167.664062 201.9375 167.664062 L 209.882812 167.664062 C 210.460938 167.664062 210.855469 168.136719 210.769531 168.714844 L 204.648438 207.199219 C 204.558594 207.777344 203.992188 208.355469 203.414062 208.355469 Z M 231.347656 208.355469 L 224.035156 208.355469 C 223.457031 208.355469 223.058594 207.882812 223.148438 207.304688 L 223.324219 206.199219 C 221.089844 207.675781 218.28125 208.832031 215.382812 208.832031 C 211.230469 208.832031 206.753906 206.515625 207.875 199.410156 L 207.976562 198.777344 C 208.976562 192.460938 214.09375 190.195312 222.910156 190.195312 L 225.175781 190.195312 L 225.414062 188.671875 C 225.824219 186.09375 225.054688 185.621094 222.425781 185.621094 L 213.210938 185.988281 C 212.3125 186.042969 212.121094 185.5625 212.222656 184.929688 L 213.058594 179.824219 C 213.183594 179.03125 213.644531 178.769531 214.308594 178.558594 C 216.128906 178.003906 220.769531 177.296875 224.136719 177.296875 C 231.765625 177.296875 236.90625 180.035156 235.539062 188.667969 L 232.625 207.3125 C 232.53125 207.890625 231.984375 208.363281 231.402344 208.363281 Z M 224.625 195.667969 L 222.046875 195.667969 C 219.414062 195.667969 218.230469 196.511719 217.878906 198.71875 L 217.796875 199.277344 C 217.511719 201.070312 218.636719 201.59375 220.113281 201.59375 C 221.398438 201.566406 222.632812 201.300781 223.816406 200.804688 L 224.652344 195.699219 Z M 261.730469 208.355469 L 253.84375 208.355469 C 253.214844 208.355469 252.78125 207.777344 252.871094 207.199219 L 255.695312 189.351562 C 256.140625 186.558594 255.386719 185.667969 253.015625 185.667969 C 251.804688 185.667969 250.234375 186.140625 248.898438 186.769531 L 245.667969 207.171875 C 245.578125 207.75 245.066406 208.328125 244.429688 208.328125 L 236.539062 208.328125 C 235.910156 208.328125 235.476562 207.75 235.566406 207.171875 L 240.0625 178.742188 C 240.15625 178.164062 240.703125 177.6875 241.289062 177.6875 L 248.601562 177.6875 C 249.179688 177.6875 249.574219 178.160156 249.488281 178.742188 L 249.292969 179.953125 C 252.414062 177.847656 255.453125 177.269531 258.398438 177.269531 C 266.660156 177.269531 266.792969 183.054688 265.804688 189.324219 L 262.996094 207.175781 C 262.902344 207.730469 262.386719 208.335938 261.757812 208.335938 Z M 285.070312 207.988281 C 282.65625 208.550781 280.207031 208.832031 277.730469 208.828125 C 269.675781 208.828125 265.96875 203.671875 267.339844 195.035156 L 267.964844 191.085938 C 269.355469 182.503906 274.679688 177.238281 282.703125 177.238281 C 285.808594 177.238281 288.363281 177.710938 289.78125 178.078125 C 290.4375 178.238281 290.765625 178.5 290.65625 179.1875 L 289.714844 185.136719 C 289.617188 185.765625 289.226562 186.238281 288.453125 186.136719 L 282.460938 185.769531 C 280.203125 185.769531 278.660156 187.160156 278.011719 191.058594 L 277.386719 195.003906 C 276.769531 198.898438 277.871094 200.265625 280.132812 200.265625 C 282.171875 200.289062 284.207031 200.183594 286.234375 199.949219 C 287.066406 199.847656 287.289062 200.265625 287.179688 200.953125 L 286.246094 206.851562 C 286.132812 207.539062 285.722656 207.796875 285.011719 207.957031 Z M 315.949219 195.882812 L 299.589844 195.882812 L 299.570312 195.992188 C 299.125 198.78125 300.015625 200.519531 303.855469 200.519531 L 313.917969 200.09375 C 314.769531 200.039062 315.027344 200.199219 314.933594 200.984375 L 314.179688 205.722656 C 314.050781 206.566406 313.78125 206.933594 312.894531 207.199219 C 309.355469 208.304688 305.664062 208.832031 301.222656 208.832031 C 294.121094 208.832031 288.136719 205.09375 289.726562 195.039062 L 290.277344 191.558594 C 291.742188 182.292969 297.910156 177.242188 306.539062 177.242188 C 315.714844 177.242188 319.054688 183.085938 317.738281 191.558594 L 317.238281 194.71875 C 317.125 195.402344 316.578125 195.875 315.949219 195.875 Z M 308.28125 190.148438 C 308.78125 186.988281 307.816406 185.09375 305.1875 185.09375 C 302.660156 185.09375 300.996094 186.992188 300.496094 190.148438 L 300.46875 190.304688 L 308.253906 190.304688 Z M 332.492188 177.722656 L 327.808594 207.203125 C 327.714844 207.761719 327.203125 208.363281 326.570312 208.363281 L 318.679688 208.363281 C 318.050781 208.363281 317.617188 207.785156 317.707031 207.203125 L 320.816406 187.726562 L 332.496094 177.75 Z M 332.492188 177.722656 " fill-opacity="1" fill-rule="nonzero"/><path fill="#29b2fe" d="M 335.21875 177.691406 L 333.605469 187.804688 L 350.960938 177.691406 " fill-opacity="1" fill-rule="nonzero"/></svg>