<svg xmlns="http://www.w3.org/2000/svg" xmlns:xlink="http://www.w3.org/1999/xlink" width="500" zoomAndPan="magnify" viewBox="0 0 375 374.999991" height="500" preserveAspectRatio="xMidYMid meet" version="1.0"><defs><clipPath id="id1"><path d="M 13.527344 82 L 135 82 L 135 293 L 13.527344 293 Z M 13.527344 82 " clip-rule="nonzero"/></clipPath><clipPath id="id2"><path d="M 357.179688 155.214844 L 191.417969 155.214844 L 191.417969 223.960938 L 286.832031 223.960938 C 277.9375 267.632812 240.742188 292.707031 191.417969 292.707031 C 133.199219 292.707031 86.300781 245.796875 86.300781 187.566406 C 86.300781 129.332031 133.199219 82.425781 191.417969 82.425781 C 216.484375 82.425781 239.125 91.320312 256.914062 105.878906 L 308.664062 54.117188 C 277.128906 26.617188 236.699219 9.632812 191.417969 9.632812 C 92.769531 9.632812 13.527344 88.894531 13.527344 187.566406 C 13.527344 286.234375 92.769531 365.496094 191.417969 365.496094 C 280.363281 365.496094 361.222656 300.792969 361.222656 187.566406 C 361.222656 177.050781 359.605469 165.726562 357.179688 155.214844 Z M 357.179688 155.214844 " clip-rule="nonzero"/></clipPath><clipPath id="id3"><path d="M 13.527344 9 L 361.222656 9 L 361.222656 188 L 13.527344 188 Z M 13.527344 9 " clip-rule="nonzero"/></clipPath><clipPath id="id4"><path d="M 357.179688 155.214844 L 191.417969 155.214844 L 191.417969 223.960938 L 286.832031 223.960938 C 277.9375 267.632812 240.742188 292.707031 191.417969 292.707031 C 133.199219 292.707031 86.300781 245.796875 86.300781 187.566406 C 86.300781 129.332031 133.199219 82.425781 191.417969 82.425781 C 216.484375 82.425781 239.125 91.320312 256.914062 105.878906 L 308.664062 54.117188 C 277.128906 26.617188 236.699219 9.632812 191.417969 9.632812 C 92.769531 9.632812 13.527344 88.894531 13.527344 187.566406 C 13.527344 286.234375 92.769531 365.496094 191.417969 365.496094 C 280.363281 365.496094 361.222656 300.792969 361.222656 187.566406 C 361.222656 177.050781 359.605469 165.726562 357.179688 155.214844 Z M 357.179688 155.214844 " clip-rule="nonzero"/></clipPath><clipPath id="id5"><path d="M 13.527344 9 L 361.222656 9 L 361.222656 365.496094 L 13.527344 365.496094 Z M 13.527344 9 " clip-rule="nonzero"/></clipPath><clipPath id="id6"><path d="M 357.179688 155.214844 L 191.417969 155.214844 L 191.417969 223.960938 L 286.832031 223.960938 C 277.9375 267.632812 240.742188 292.707031 191.417969 292.707031 C 133.199219 292.707031 86.300781 245.796875 86.300781 187.566406 C 86.300781 129.332031 133.199219 82.425781 191.417969 82.425781 C 216.484375 82.425781 239.125 91.320312 256.914062 105.878906 L 308.664062 54.117188 C 277.128906 26.617188 236.699219 9.632812 191.417969 9.632812 C 92.769531 9.632812 13.527344 88.894531 13.527344 187.566406 C 13.527344 286.234375 92.769531 365.496094 191.417969 365.496094 C 280.363281 365.496094 361.222656 300.792969 361.222656 187.566406 C 361.222656 177.050781 359.605469 165.726562 357.179688 155.214844 Z M 357.179688 155.214844 " clip-rule="nonzero"/></clipPath><clipPath id="id7"><path d="M 102 82 L 361.222656 82 L 361.222656 365.496094 L 102 365.496094 Z M 102 82 " clip-rule="nonzero"/></clipPath><clipPath id="id8"><path d="M 357.179688 155.214844 L 191.417969 155.214844 L 191.417969 223.960938 L 286.832031 223.960938 C 277.9375 267.632812 240.742188 292.707031 191.417969 292.707031 C 133.199219 292.707031 86.300781 245.796875 86.300781 187.566406 C 86.300781 129.332031 133.199219 82.425781 191.417969 82.425781 C 216.484375 82.425781 239.125 91.320312 256.914062 105.878906 L 308.664062 54.117188 C 277.128906 26.617188 236.699219 9.632812 191.417969 9.632812 C 92.769531 9.632812 13.527344 88.894531 13.527344 187.566406 C 13.527344 286.234375 92.769531 365.496094 191.417969 365.496094 C 280.363281 365.496094 361.222656 300.792969 361.222656 187.566406 C 361.222656 177.050781 359.605469 165.726562 357.179688 155.214844 Z M 357.179688 155.214844 " clip-rule="nonzero"/></clipPath></defs><rect x="-37.5" width="450" fill="#ffffff" y="-37.499999" height="449.999989" fill-opacity="1"/><rect x="-37.5" width="450" fill="#ffffff" y="-37.499999" height="449.999989" fill-opacity="1"/><rect x="-37.5" width="450" fill="#ffffff" y="-37.499999" height="449.999989" fill-opacity="1"/><rect x="-37.5" width="450" fill="#ffffff" y="-37.499999" height="449.999989" fill-opacity="1"/><g clip-path="url(#id1)"><g clip-path="url(#id2)"><path fill="#fbbc05" d="M -2.644531 292.707031 L -2.644531 82.425781 L 134.816406 187.566406 Z M -2.644531 292.707031 " fill-opacity="1" fill-rule="nonzero"/></g></g><g clip-path="url(#id3)"><g clip-path="url(#id4)"><path fill="#ea4335" d="M -2.644531 82.425781 L 134.816406 187.566406 L 191.417969 138.230469 L 385.480469 106.6875 L 385.480469 -6.542969 L -2.644531 -6.542969 Z M -2.644531 82.425781 " fill-opacity="1" fill-rule="nonzero"/></g></g><g clip-path="url(#id5)"><g clip-path="url(#id6)"><path fill="#34a853" d="M -2.644531 292.707031 L 239.933594 106.6875 L 303.8125 114.773438 L 385.480469 -6.542969 L 385.480469 381.671875 L -2.644531 381.671875 Z M -2.644531 292.707031 " fill-opacity="1" fill-rule="nonzero"/></g></g><g clip-path="url(#id7)"><g clip-path="url(#id8)"><path fill="#4285f4" d="M 385.480469 381.671875 L 134.816406 187.566406 L 102.472656 163.300781 L 385.480469 82.425781 Z M 385.480469 381.671875 " fill-opacity="1" fill-rule="nonzero"/></g></g></svg>