<svg xmlns="http://www.w3.org/2000/svg" xmlns:xlink="http://www.w3.org/1999/xlink" width="500" zoomAndPan="magnify" viewBox="0 0 375 374.999991" height="500" preserveAspectRatio="xMidYMid meet" version="1.0"><defs><clipPath id="id1"><path d="M 21 152.0625 L 56 152.0625 L 56 186 L 21 186 Z M 21 152.0625 " clip-rule="nonzero"/></clipPath><clipPath id="id2"><path d="M 58 152.0625 L 93 152.0625 L 93 186 L 58 186 Z M 58 152.0625 " clip-rule="nonzero"/></clipPath><clipPath id="id3"><path d="M 21 189 L 56 189 L 56 223.3125 L 21 223.3125 Z M 21 189 " clip-rule="nonzero"/></clipPath><clipPath id="id4"><path d="M 58 189 L 93 189 L 93 223.3125 L 58 223.3125 Z M 58 189 " clip-rule="nonzero"/></clipPath></defs><rect x="-37.5" width="450" fill="#ffffff" y="-37.499999" height="449.999989" fill-opacity="1"/><rect x="-37.5" width="450" fill="#ffffff" y="-37.499999" height="449.999989" fill-opacity="1"/><rect x="-37.5" width="450" fill="#ffffff" y="-37.499999" height="449.999989" fill-opacity="1"/><rect x="-37.5" width="450" fill="#ffffff" y="-37.499999" height="449.999989" fill-opacity="1"/><path fill="#706d6e" d="M 353.660156 184.289062 L 353.660156 178.417969 L 346.410156 178.417969 L 346.410156 169.296875 L 346.164062 169.371094 L 339.351562 171.464844 L 339.214844 171.507812 L 339.214844 178.417969 L 328.464844 178.417969 L 328.464844 174.570312 C 328.464844 172.777344 328.859375 171.402344 329.652344 170.488281 C 330.429688 169.585938 331.546875 169.125 332.972656 169.125 C 334 169.125 335.058594 169.367188 336.128906 169.847656 L 336.394531 169.964844 L 336.394531 163.785156 L 336.265625 163.738281 C 335.269531 163.378906 333.914062 163.199219 332.242188 163.199219 C 330.125 163.199219 328.199219 163.660156 326.523438 164.578125 C 324.84375 165.496094 323.527344 166.804688 322.605469 168.472656 C 321.683594 170.136719 321.210938 172.058594 321.210938 174.1875 L 321.210938 178.417969 L 316.164062 178.417969 L 316.164062 184.289062 L 321.210938 184.289062 L 321.210938 209.007812 L 328.464844 209.007812 L 328.464844 184.289062 L 339.214844 184.289062 L 339.214844 200 C 339.214844 206.46875 342.253906 209.746094 348.25 209.746094 C 349.226562 209.746094 350.265625 209.632812 351.324219 209.402344 C 352.402344 209.171875 353.132812 208.9375 353.570312 208.691406 L 353.660156 208.632812 L 353.660156 202.710938 L 353.367188 202.90625 C 352.972656 203.171875 352.484375 203.386719 351.90625 203.546875 C 351.332031 203.707031 350.851562 203.789062 350.480469 203.789062 C 349.070312 203.789062 348.035156 203.410156 347.390625 202.660156 C 346.738281 201.90625 346.410156 200.582031 346.410156 198.730469 L 346.410156 184.289062 Z M 299.972656 203.789062 C 297.339844 203.789062 295.261719 202.914062 293.804688 201.1875 C 292.328125 199.453125 291.582031 196.976562 291.582031 193.832031 C 291.582031 190.589844 292.328125 188.050781 293.804688 186.285156 C 295.269531 184.527344 297.320312 183.640625 299.914062 183.640625 C 302.425781 183.640625 304.425781 184.488281 305.859375 186.167969 C 307.300781 187.855469 308.03125 190.375 308.03125 193.65625 C 308.03125 196.976562 307.34375 199.53125 305.988281 201.234375 C 304.644531 202.929688 302.621094 203.789062 299.972656 203.789062 Z M 300.292969 177.683594 C 295.277344 177.683594 291.285156 179.160156 288.441406 182.074219 C 285.601562 184.992188 284.160156 189.023438 284.160156 194.066406 C 284.160156 198.859375 285.570312 202.710938 288.339844 205.515625 C 291.117188 208.324219 294.886719 209.746094 299.558594 209.746094 C 304.425781 209.746094 308.335938 208.25 311.179688 205.292969 C 314.019531 202.339844 315.460938 198.34375 315.460938 193.417969 C 315.460938 188.554688 314.105469 184.671875 311.4375 181.886719 C 308.773438 179.097656 305.023438 177.683594 300.292969 177.683594 Z M 272.46875 177.683594 C 269.054688 177.683594 266.226562 178.558594 264.074219 180.289062 C 261.898438 182.03125 260.796875 184.3125 260.796875 187.078125 C 260.796875 188.511719 261.035156 189.789062 261.503906 190.871094 C 261.976562 191.957031 262.703125 192.910156 263.671875 193.714844 C 264.628906 194.507812 266.117188 195.34375 268.074219 196.191406 C 269.730469 196.875 270.964844 197.453125 271.742188 197.90625 C 272.507812 198.351562 273.050781 198.800781 273.359375 199.238281 C 273.65625 199.664062 273.804688 200.25 273.804688 200.972656 C 273.804688 203.027344 272.273438 204.027344 269.121094 204.027344 C 267.953125 204.027344 266.621094 203.78125 265.15625 203.296875 C 263.695312 202.816406 262.332031 202.121094 261.101562 201.230469 L 260.796875 201.011719 L 260.796875 208.027344 L 260.90625 208.078125 C 261.9375 208.554688 263.230469 208.953125 264.753906 209.269531 C 266.273438 209.585938 267.652344 209.746094 268.859375 209.746094 C 272.566406 209.746094 275.550781 208.867188 277.722656 207.125 C 279.917969 205.371094 281.027344 203.035156 281.027344 200.175781 C 281.027344 198.113281 280.429688 196.347656 279.25 194.921875 C 278.082031 193.503906 276.050781 192.207031 273.214844 191.058594 C 270.957031 190.148438 269.507812 189.394531 268.917969 188.8125 C 268.34375 188.253906 268.050781 187.460938 268.050781 186.457031 C 268.050781 185.566406 268.40625 184.855469 269.144531 184.277344 C 269.894531 183.699219 270.929688 183.402344 272.234375 183.402344 C 273.441406 183.402344 274.679688 183.59375 275.90625 183.96875 C 277.132812 184.34375 278.21875 184.847656 279.121094 185.464844 L 279.410156 185.667969 L 279.410156 179.015625 L 279.300781 178.964844 C 278.46875 178.609375 277.375 178.300781 276.042969 178.054688 C 274.714844 177.808594 273.511719 177.683594 272.46875 177.683594 Z M 241.894531 203.789062 C 239.265625 203.789062 237.191406 202.914062 235.730469 201.1875 C 234.257812 199.453125 233.511719 196.976562 233.511719 193.832031 C 233.511719 190.589844 234.257812 188.050781 235.730469 186.285156 C 237.191406 184.527344 239.246094 183.640625 241.835938 183.640625 C 244.355469 183.640625 246.351562 184.488281 247.785156 186.167969 C 249.226562 187.855469 249.960938 190.375 249.960938 193.65625 C 249.960938 196.976562 249.273438 199.53125 247.914062 201.234375 C 246.566406 202.929688 244.542969 203.789062 241.894531 203.789062 Z M 242.21875 177.683594 C 237.195312 177.683594 233.210938 179.160156 230.371094 182.074219 C 227.527344 184.992188 226.082031 189.023438 226.082031 194.066406 C 226.082031 198.859375 227.488281 202.710938 230.265625 205.515625 C 233.039062 208.324219 236.8125 209.746094 241.484375 209.746094 C 246.351562 209.746094 250.257812 208.25 253.101562 205.292969 C 255.941406 202.339844 257.382812 198.34375 257.382812 193.417969 C 257.382812 188.554688 256.03125 184.671875 253.367188 181.886719 C 250.699219 179.097656 246.949219 177.683594 242.21875 177.683594 Z M 215.078125 183.71875 L 215.078125 178.417969 L 207.914062 178.417969 L 207.914062 209.007812 L 215.078125 209.007812 L 215.078125 193.363281 C 215.078125 190.699219 215.679688 188.515625 216.863281 186.863281 C 218.035156 185.230469 219.59375 184.40625 221.496094 184.40625 C 222.144531 184.40625 222.863281 184.511719 223.648438 184.722656 C 224.425781 184.933594 224.984375 185.164062 225.316406 185.402344 L 225.621094 185.621094 L 225.621094 178.367188 L 225.503906 178.316406 C 224.835938 178.03125 223.894531 177.886719 222.703125 177.886719 C 220.898438 177.886719 219.289062 178.46875 217.914062 179.613281 C 216.699219 180.617188 215.824219 181.996094 215.15625 183.71875 Z M 195.09375 177.683594 C 191.804688 177.683594 188.871094 178.390625 186.378906 179.785156 C 183.878906 181.183594 181.953125 183.179688 180.636719 185.71875 C 179.324219 188.253906 178.664062 191.210938 178.664062 194.511719 C 178.664062 197.402344 179.304688 200.054688 180.578125 202.390625 C 181.855469 204.734375 183.660156 206.566406 185.9375 207.835938 C 188.222656 209.105469 190.855469 209.746094 193.769531 209.746094 C 197.175781 209.746094 200.082031 209.0625 202.410156 207.714844 L 202.503906 207.660156 L 202.503906 201.070312 L 202.203125 201.289062 C 201.144531 202.0625 199.964844 202.679688 198.699219 203.121094 C 197.433594 203.566406 196.28125 203.789062 195.269531 203.789062 C 192.457031 203.789062 190.199219 202.90625 188.566406 201.164062 C 186.921875 199.421875 186.085938 196.972656 186.085938 193.890625 C 186.085938 190.789062 186.957031 188.277344 188.667969 186.425781 C 190.375 184.578125 192.632812 183.640625 195.382812 183.640625 C 197.738281 183.640625 200.03125 184.441406 202.203125 186.023438 L 202.503906 186.242188 L 202.503906 179.296875 L 202.40625 179.238281 C 201.585938 178.78125 200.476562 178.402344 199.097656 178.113281 C 197.714844 177.828125 196.371094 177.683594 195.09375 177.683594 Z M 173.730469 178.417969 L 166.570312 178.417969 L 166.570312 209.007812 L 173.730469 209.007812 Z M 170.222656 165.386719 C 169.042969 165.386719 168.015625 165.792969 167.171875 166.589844 C 166.324219 167.390625 165.894531 168.402344 165.894531 169.589844 C 165.894531 170.761719 166.316406 171.753906 167.160156 172.53125 C 167.988281 173.308594 169.023438 173.703125 170.222656 173.703125 C 171.421875 173.703125 172.453125 173.308594 173.304688 172.535156 C 174.152344 171.753906 174.582031 170.761719 174.582031 169.589844 C 174.582031 168.441406 174.160156 167.441406 173.335938 166.621094 C 172.511719 165.804688 171.460938 165.386719 170.222656 165.386719 Z M 152.351562 176.164062 L 152.351562 209.007812 L 159.660156 209.007812 L 159.660156 166.324219 L 149.542969 166.324219 L 136.6875 198.027344 L 124.207031 166.324219 L 113.679688 166.324219 L 113.679688 209.007812 L 120.546875 209.007812 L 120.546875 176.160156 L 120.785156 176.160156 L 133.964844 209.007812 L 139.140625 209.007812 L 152.117188 176.164062 Z M 152.351562 176.164062 " fill-opacity="1" fill-rule="nonzero"/><g clip-path="url(#id1)"><path fill="#f1511b" d="M 21.53125 152.0625 L 55.222656 152.0625 L 55.222656 185.910156 L 21.53125 185.910156 Z M 21.53125 152.0625 " fill-opacity="1" fill-rule="nonzero"/></g><g clip-path="url(#id2)"><path fill="#80cc28" d="M 58.730469 152.0625 L 92.425781 152.0625 L 92.425781 185.910156 L 58.730469 185.910156 Z M 58.730469 152.0625 " fill-opacity="1" fill-rule="nonzero"/></g><g clip-path="url(#id3)"><path fill="#00adef" d="M 21.53125 189.449219 L 55.222656 189.449219 L 55.222656 223.296875 L 21.53125 223.296875 Z M 21.53125 189.449219 " fill-opacity="1" fill-rule="nonzero"/></g><g clip-path="url(#id4)"><path fill="#fbbc09" d="M 58.730469 189.449219 L 92.425781 189.449219 L 92.425781 223.296875 L 58.730469 223.296875 Z M 58.730469 189.449219 " fill-opacity="1" fill-rule="nonzero"/></g></svg>