<svg xmlns="http://www.w3.org/2000/svg" xmlns:xlink="http://www.w3.org/1999/xlink" width="500" zoomAndPan="magnify" viewBox="0 0 375 374.999991" height="500" preserveAspectRatio="xMidYMid meet" version="1.0"><defs><clipPath id="id1"><path d="M 17.320312 152 L 138 152 L 138 238.226562 L 17.320312 238.226562 Z M 17.320312 152 " clip-rule="nonzero"/></clipPath><clipPath id="id2"><path d="M 138 137 L 357.820312 137 L 357.820312 216 L 138 216 Z M 138 137 " clip-rule="nonzero"/></clipPath></defs><rect x="-37.5" width="450" fill="#ffffff" y="-37.499999" height="449.999989" fill-opacity="1"/><rect x="-37.5" width="450" fill="#ffffff" y="-37.499999" height="449.999989" fill-opacity="1"/><rect x="-37.5" width="450" fill="#ffffff" y="-37.499999" height="449.999989" fill-opacity="1"/><rect x="-37.5" width="450" fill="#ffffff" y="-37.499999" height="449.999989" fill-opacity="1"/><g clip-path="url(#id1)"><path fill="#6fda44" d="M 110.46875 201.316406 C 104.933594 201.316406 99.742188 198.96875 95.03125 195.144531 L 96.175781 189.75 L 96.222656 189.550781 C 97.25 183.804688 100.488281 174.164062 110.46875 174.164062 C 117.945312 174.164062 124.035156 180.257812 124.035156 187.753906 C 124.007812 195.222656 117.917969 201.316406 110.46875 201.316406 Z M 110.46875 160.402344 C 97.722656 160.402344 87.847656 168.695312 83.835938 182.332031 C 77.699219 173.117188 73.0625 162.050781 70.34375 152.734375 L 56.628906 152.734375 L 56.628906 188.476562 C 56.628906 195.519531 50.890625 201.265625 43.859375 201.265625 C 36.828125 201.265625 31.09375 195.519531 31.09375 188.476562 L 31.09375 152.734375 L 17.378906 152.734375 L 17.378906 188.476562 C 17.328125 203.113281 29.222656 215.132812 43.835938 215.132812 C 58.449219 215.132812 70.34375 203.113281 70.34375 188.476562 L 70.34375 182.484375 C 73.011719 188.050781 76.277344 193.671875 80.242188 198.667969 L 71.839844 238.238281 L 85.878906 238.238281 L 91.964844 209.535156 C 97.300781 212.953125 103.4375 215.105469 110.46875 215.105469 C 125.503906 215.105469 137.746094 202.765625 137.746094 187.703125 C 137.746094 172.664062 125.503906 160.402344 110.46875 160.402344 Z M 110.46875 160.402344 " fill-opacity="1" fill-rule="nonzero"/></g><g clip-path="url(#id2)"><path fill="#000000" d="M 179.613281 161.949219 L 188.46875 197.695312 L 198.214844 161.949219 L 209.835938 161.949219 L 194.847656 213.605469 L 183.230469 213.605469 L 174.03125 177.636719 L 164.847656 213.578125 L 153.234375 213.578125 L 138.242188 161.925781 L 149.867188 161.925781 L 159.613281 197.667969 L 168.46875 161.925781 L 179.613281 161.925781 Z M 237.640625 160.402344 C 222.558594 160.402344 210.335938 172.664062 210.335938 187.753906 C 210.335938 202.863281 222.578125 215.105469 237.640625 215.105469 C 252.730469 215.105469 264.96875 202.863281 264.96875 187.753906 C 264.96875 172.640625 252.730469 160.402344 237.640625 160.402344 Z M 237.640625 203.863281 C 228.765625 203.863281 221.585938 196.667969 221.585938 187.777344 C 221.585938 178.886719 228.792969 171.691406 237.640625 171.691406 C 246.523438 171.691406 253.699219 178.886719 253.699219 187.777344 C 253.699219 196.644531 246.523438 203.863281 237.640625 203.863281 Z M 298.160156 173.515625 C 290.359375 173.515625 284.050781 179.859375 284.050781 187.652344 L 284.050781 213.578125 L 272.355469 213.578125 L 272.355469 161.949219 L 284.050781 161.949219 L 284.050781 169.894531 C 284.050781 169.894531 289.035156 161.925781 299.285156 161.925781 L 302.878906 161.925781 L 302.878906 173.515625 Z M 337.414062 185.753906 C 345.71875 181.058594 351.351562 172.140625 351.351562 161.925781 L 339.65625 161.925781 C 339.65625 170.542969 332.679688 177.535156 324.070312 177.535156 L 322.5 177.535156 L 322.5 137.023438 L 310.804688 137.023438 L 310.804688 213.578125 L 322.5 213.578125 L 322.5 189.25 L 323.894531 189.25 C 325.046875 189.25 326.542969 190 327.214844 190.925781 L 343.820312 213.578125 L 357.839844 213.578125 Z M 337.414062 185.753906 " fill-opacity="1" fill-rule="nonzero"/></g></svg>