<svg xmlns="http://www.w3.org/2000/svg" xmlns:xlink="http://www.w3.org/1999/xlink" width="500" zoomAndPan="magnify" viewBox="0 0 375 374.999991" height="500" preserveAspectRatio="xMidYMid meet" version="1.0"><defs><clipPath id="id1"><path d="M 23.355469 23.355469 L 351.855469 23.355469 L 351.855469 351.855469 L 23.355469 351.855469 Z M 23.355469 23.355469 " clip-rule="nonzero"/></clipPath></defs><rect x="-37.5" width="450" fill="#ffffff" y="-37.499999" height="449.999989" fill-opacity="1"/><rect x="-37.5" width="450" fill="#ffffff" y="-37.499999" height="449.999989" fill-opacity="1"/><rect x="-37.5" width="450" fill="#ffffff" y="-37.499999" height="449.999989" fill-opacity="1"/><rect x="-37.5" width="450" fill="#ffffff" y="-37.499999" height="449.999989" fill-opacity="1"/><g clip-path="url(#id1)"><path fill="#00749a" d="M 46.554688 187.605469 C 46.554688 243.550781 78.6875 291.75 125.601562 314.363281 L 59.058594 130.476562 C 51.328125 148.328125 46.554688 167.382812 46.554688 187.605469 Z M 282.816406 180.460938 C 282.816406 163.214844 276.269531 150.6875 270.910156 141.777344 C 263.765625 129.871094 257.226562 120.355469 257.226562 108.457031 C 257.226562 95.367188 267.347656 83.460938 281.042969 83.460938 L 282.828125 83.460938 C 257.820312 60.25 224.5 46.554688 187.605469 46.554688 C 184.699219 46.582031 181.800781 46.695312 178.902344 46.898438 C 176.003906 47.097656 173.117188 47.390625 170.234375 47.765625 C 167.355469 48.144531 164.492188 48.609375 161.640625 49.164062 C 158.789062 49.714844 155.957031 50.351562 153.144531 51.078125 C 150.332031 51.800781 147.542969 52.613281 144.78125 53.507812 C 142.015625 54.402344 139.28125 55.378906 136.578125 56.4375 C 133.875 57.5 131.207031 58.640625 128.570312 59.863281 C 125.9375 61.085938 123.34375 62.390625 120.785156 63.769531 C 118.230469 65.152344 115.722656 66.609375 113.253906 68.140625 C 110.789062 69.675781 108.371094 71.28125 106 72.964844 C 103.632812 74.644531 101.316406 76.394531 99.054688 78.21875 C 96.792969 80.039062 94.589844 81.925781 92.441406 83.882812 C 90.292969 85.839844 88.207031 87.859375 86.183594 89.941406 C 84.160156 92.023438 82.199219 94.164062 80.304688 96.367188 C 78.414062 98.570312 76.585938 100.828125 74.828125 103.140625 C 73.074219 105.453125 71.386719 107.816406 69.777344 110.234375 L 78.707031 110.234375 C 93.59375 110.234375 116.195312 108.445312 116.195312 108.445312 C 123.9375 107.851562 124.53125 119.152344 117.386719 120.355469 C 117.386719 120.355469 109.648438 121.546875 101.320312 121.546875 L 152.507812 273.886719 L 183.445312 181.640625 L 161.425781 121.535156 L 146.542969 120.363281 C 138.800781 119.769531 139.992188 108.457031 147.136719 108.457031 C 147.136719 108.457031 170.335938 110.242188 184.03125 110.242188 C 198.917969 110.242188 221.523438 108.457031 221.523438 108.457031 C 229.261719 107.859375 229.859375 119.164062 222.714844 120.363281 C 222.714844 120.363281 214.972656 121.554688 206.648438 121.554688 L 257.820312 273.324219 L 272.191406 226.304688 C 278.148438 206.667969 282.898438 192.984375 282.898438 180.480469 Z M 189.984375 200.097656 L 147.734375 322.699219 C 160.226562 326.273438 173.910156 328.652344 187.605469 328.652344 C 204.265625 328.652344 219.734375 325.574219 234.621094 320.914062 C 234.027344 320.320312 234.027344 319.722656 233.429688 319.128906 Z M 311.386719 120.363281 L 312.578125 134.738281 C 312.578125 149.109375 310.195312 165.09375 301.871094 185.324219 L 259.023438 309.703125 C 300.679688 285.300781 329.238281 240.070312 329.238281 187.707031 C 328.644531 163.304688 322.09375 140.691406 311.378906 120.46875 Z M 187.605469 23.355469 C 97.144531 23.355469 23.355469 97.144531 23.355469 187.605469 C 23.355469 278.066406 97.144531 351.855469 187.605469 351.855469 C 278.066406 351.855469 351.855469 278.066406 351.855469 187.605469 C 351.855469 97.144531 278.066406 23.355469 187.605469 23.355469 Z M 187.605469 344.710938 C 101.3125 344.710938 31.09375 274.492188 31.09375 187.605469 C 31.097656 185.042969 31.164062 182.484375 31.296875 179.929688 C 31.425781 177.371094 31.617188 174.820312 31.871094 172.273438 C 32.125 169.722656 32.441406 167.183594 32.820312 164.652344 C 33.199219 162.121094 33.640625 159.597656 34.144531 157.089844 C 34.644531 154.578125 35.207031 152.082031 35.832031 149.597656 C 36.457031 147.113281 37.144531 144.648438 37.890625 142.199219 C 38.636719 139.75 39.441406 137.320312 40.304688 134.910156 C 41.167969 132.5 42.09375 130.113281 43.074219 127.75 C 44.054688 125.382812 45.09375 123.046875 46.191406 120.730469 C 47.289062 118.417969 48.441406 116.132812 49.648438 113.875 C 50.855469 111.617188 52.117188 109.390625 53.4375 107.195312 C 54.753906 105 56.125 102.839844 57.546875 100.710938 C 58.96875 98.582031 60.445312 96.488281 61.96875 94.433594 C 63.496094 92.378906 65.070312 90.359375 66.695312 88.382812 C 68.320312 86.402344 69.992188 84.464844 71.710938 82.570312 C 73.433594 80.671875 75.195312 78.816406 77.007812 77.007812 C 78.816406 75.195312 80.671875 73.433594 82.570312 71.710938 C 84.464844 69.992188 86.402344 68.320312 88.382812 66.695312 C 90.359375 65.070312 92.378906 63.496094 94.433594 61.96875 C 96.488281 60.445312 98.582031 58.96875 100.710938 57.546875 C 102.839844 56.125 105 54.753906 107.195312 53.4375 C 109.390625 52.117188 111.617188 50.855469 113.875 49.648438 C 116.132812 48.441406 118.417969 47.289062 120.730469 46.191406 C 123.046875 45.09375 125.382812 44.054688 127.75 43.074219 C 130.113281 42.09375 132.5 41.167969 134.910156 40.304688 C 137.320312 39.441406 139.75 38.636719 142.199219 37.890625 C 144.648438 37.144531 147.113281 36.457031 149.597656 35.832031 C 152.082031 35.207031 154.578125 34.644531 157.089844 34.144531 C 159.597656 33.640625 162.121094 33.199219 164.652344 32.820312 C 167.183594 32.441406 169.722656 32.125 172.273438 31.871094 C 174.820312 31.617188 177.371094 31.425781 179.929688 31.296875 C 182.484375 31.164062 185.042969 31.097656 187.605469 31.09375 C 190.164062 31.097656 192.722656 31.164062 195.28125 31.296875 C 197.835938 31.425781 200.390625 31.617188 202.9375 31.871094 C 205.484375 32.125 208.023438 32.441406 210.558594 32.820312 C 213.089844 33.199219 215.609375 33.640625 218.121094 34.144531 C 220.632812 34.644531 223.128906 35.207031 225.609375 35.832031 C 228.09375 36.457031 230.558594 37.144531 233.007812 37.890625 C 235.457031 38.636719 237.886719 39.441406 240.296875 40.304688 C 242.707031 41.167969 245.09375 42.09375 247.460938 43.074219 C 249.824219 44.054688 252.164062 45.09375 254.476562 46.191406 C 256.792969 47.289062 259.078125 48.441406 261.335938 49.648438 C 263.589844 50.855469 265.816406 52.117188 268.011719 53.4375 C 270.207031 54.753906 272.371094 56.125 274.5 57.546875 C 276.625 58.96875 278.71875 60.445312 280.773438 61.96875 C 282.832031 63.496094 284.847656 65.070312 286.828125 66.695312 C 288.804688 68.320312 290.742188 69.992188 292.640625 71.710938 C 294.539062 73.433594 296.390625 75.195312 298.203125 77.007812 C 300.011719 78.816406 301.777344 80.671875 303.496094 82.570312 C 305.214844 84.464844 306.886719 86.402344 308.511719 88.382812 C 310.136719 90.359375 311.710938 92.378906 313.238281 94.433594 C 314.765625 96.488281 316.238281 98.582031 317.664062 100.710938 C 319.085938 102.839844 320.457031 105 321.773438 107.195312 C 323.089844 109.390625 324.351562 111.617188 325.5625 113.875 C 326.769531 116.132812 327.921875 118.417969 329.019531 120.730469 C 330.113281 123.046875 331.152344 125.382812 332.136719 127.75 C 333.117188 130.113281 334.039062 132.5 334.90625 134.910156 C 335.769531 137.320312 336.574219 139.75 337.320312 142.199219 C 338.066406 144.648438 338.75 147.113281 339.375 149.597656 C 340 152.082031 340.5625 154.578125 341.066406 157.089844 C 341.570312 159.597656 342.007812 162.121094 342.386719 164.652344 C 342.765625 167.183594 343.082031 169.722656 343.339844 172.273438 C 343.59375 174.820312 343.785156 177.371094 343.914062 179.929688 C 344.042969 182.484375 344.109375 185.042969 344.113281 187.605469 C 344.113281 274.492188 273.898438 344.710938 187.605469 344.710938 Z M 187.605469 344.710938 " fill-opacity="1" fill-rule="nonzero"/></g></svg>